<svg width="40" height="41" viewBox="0 0 40 41" fill="none" xmlns="http://www.w3.org/2000/svg">
<g clip-path="url(#clip0_412_160)">
<path d="M39.5 20.25C39.5 9.48045 30.7696 0.75 20 0.75C9.23045 0.75 0.5 9.48045 0.5 20.25C0.5 31.0196 9.23045 39.75 20 39.75C30.7696 39.75 39.5 31.0196 39.5 20.25Z" fill="white"/>
<mask id="mask0_412_160" style="mask-type:luminance" maskUnits="userSpaceOnUse" x="10" y="10" width="20" height="21">
<path d="M30 10.25H10V30.25H30V10.25Z" fill="white"/>
</mask>
<g mask="url(#mask0_412_160)">
<path d="M29.6 20.4773C29.6 19.7682 29.5364 19.0864 29.4182 18.4318H20V22.3H25.3818C25.15 23.55 24.4455 24.6091 23.3864 25.3182V27.8273H26.6182C28.5091 26.0864 29.6 23.5227 29.6 20.4773Z" fill="#4285F4"/>
<path d="M20 30.25C22.7 30.25 24.9636 29.3545 26.6181 27.8273L23.3863 25.3182C22.4909 25.9182 21.3454 26.2727 20 26.2727C17.3954 26.2727 15.1909 24.5136 14.4045 22.15H11.0636V24.7409C12.7091 28.0091 16.0909 30.25 20 30.25Z" fill="#34A853"/>
<path d="M14.4045 22.15C14.2045 21.55 14.0909 20.9091 14.0909 20.25C14.0909 19.5909 14.2045 18.95 14.4045 18.35V15.7591H11.0636C10.3864 17.1091 10 18.6364 10 20.25C10 21.8636 10.3864 23.3909 11.0636 24.7409L14.4045 22.15Z" fill="#FBBC04"/>
<path d="M20 14.2273C21.4681 14.2273 22.7863 14.7318 23.8227 15.7227L26.6909 12.8545C24.9591 11.2409 22.6954 10.25 20 10.25C16.0909 10.25 12.7091 12.4909 11.0636 15.7591L14.4045 18.35C15.1909 15.9864 17.3954 14.2273 20 14.2273Z" fill="#E94235"/>
</g>
</g>
<defs>
<clipPath id="clip0_412_160">
<rect width="40" height="40" fill="white" transform="translate(0 0.25)"/>
</clipPath>
</defs>
</svg>
